# xmcd CD database file
#
# Track frame offsets:
#	150
#	16998
#	34596
#	46049
#	60078
#	79530
#	98267
#	112494
#	127905
#	140872
#	155745
#
# Disc length: 2324 seconds
#
# Revision: 54
# Processed by: cddbd v1.5.2PL0 Copyright (c) Steve Scherf et al.
# Submitted via: CDex 1.51
#
DISCID=8109120b
DTITLE=Garth Brooks - No Fences
DYEAR=1990
DGENRE=Country
TTITLE0=The Thunder Rolls
TTITLE1=New Way To Fly
TTITLE2=Two Of A Kind, Workin' On A Full House
TTITLE3=Victim Of The Game
TTITLE4=Friends In Low Places
TTITLE5=This Ain't Tennessee
TTITLE6=Wild Horses
TTITLE7=Unanswered Prayers
TTITLE8=Same Old Story
TTITLE9=Mr. Blue
TTITLE10=Wolves
EXTD=YEAR: 1990
EXTT0=
EXTT1=
EXTT2=
EXTT3=
EXTT4=
EXTT5=
EXTT6=
EXTT7=
EXTT8=
EXTT9=
EXTT10=
PLAYORDER=
